<svg xmlns="http://www.w3.org/2000/svg" viewBox="0 0 512 512" fill="none">
  <defs>
    <linearGradient id="bg" x1="48" y1="28" x2="470" y2="488" gradientUnits="userSpaceOnUse">
      <stop offset="0" stop-color="#10261d"/>
      <stop offset="0.52" stop-color="#224034"/>
      <stop offset="1" stop-color="#6a3f20"/>
    </linearGradient>
    <radialGradient id="glow" cx="0" cy="0" r="1" gradientUnits="userSpaceOnUse" gradientTransform="translate(372 142) rotate(90) scale(170 190)">
      <stop offset="0" stop-color="#f3c66a" stop-opacity="0.55"/>
      <stop offset="1" stop-color="#f3c66a" stop-opacity="0"/>
    </radialGradient>
    <filter id="shadow" x="-20%" y="-20%" width="160%" height="160%">
      <feDropShadow dx="0" dy="12" stdDeviation="16" flood-color="#09110c" flood-opacity="0.42"/>
    </filter>
  </defs>
  <rect width="512" height="512" rx="112" fill="url(#bg)"/>
  <rect x="18" y="18" width="476" height="476" rx="96" fill="none" stroke="#f1d7a0" stroke-opacity="0.20" stroke-width="2"/>
  <circle cx="378" cy="118" r="86" fill="url(#glow)"/>
  <g filter="url(#shadow)">
    <g transform="translate(292 182) rotate(12 80 116)">
      <rect x="0" y="0" width="160" height="232" rx="26" fill="#f8eed8" stroke="#e7c68f" stroke-width="4"/>
      <rect x="14" y="14" width="132" height="204" rx="18" fill="none" stroke="#ffffff" stroke-opacity="0.40" stroke-width="2"/>
      <g transform="translate(83 113)">
        <ellipse cx="-24" cy="-12" rx="20" ry="20" fill="#1f2a25"/>
        <ellipse cx="24" cy="-12" rx="20" ry="20" fill="#1f2a25"/>
        <ellipse cx="0" cy="-40" rx="20" ry="20" fill="#1f2a25"/>
        <rect x="-11" y="-5" width="22" height="58" rx="10" fill="#1f2a25"/>
      </g>
    </g>
    <g transform="translate(120 118) rotate(-14 88 128)">
      <rect x="0" y="0" width="176" height="256" rx="28" fill="#fff6e5" stroke="#e3c288" stroke-width="4"/>
      <rect x="16" y="16" width="144" height="224" rx="20" fill="none" stroke="#ffffff" stroke-opacity="0.45" stroke-width="2"/>
      <g transform="translate(88 122)">
        <circle cx="-24" cy="-12" r="20" fill="#c53a31"/>
        <circle cx="24" cy="-12" r="20" fill="#c53a31"/>
        <path d="M 0 52 C -20 32 -40 14 -40 -6 C -40 -24 -26 -36 -12 -36 C -2 -36 6 -30 0 -18 C 6 -30 14 -36 24 -36 C 38 -36 52 -24 52 -6 C 52 14 32 32 0 52 Z" fill="#c53a31"/>
      </g>
    </g>
  </g>
  <rect x="78" y="404" width="356" height="24" rx="12" fill="#d7b56d" fill-opacity="0.25"/>
  <circle cx="392" cy="112" r="14" fill="#f6e3af" fill-opacity="0.85"/>
</svg>
